PathFileType	4	(X/Y/Z)	/Users/itak/Documents/Research/Walk-IL/dataset/trc/00273_00010.trc
DataRate	CameraRate	NumFrames	NumMarkers	Units	OrigDataRate	OrigDataStartFrame	OrigNumFrames
100.000000	100.000000	4	53	mm	100.000000	0	505
Frame#	Time	RPSI			LPSI			L3			STRN			T10			C7			CLAV			RBAK			LBAK			LSHO			LUPA			LAEL			LAOL			LWTS			LWPS			LFRA			LIFD			LHPS			LHTS			RSHO			RUPA			RAEL			RAOL			RWTS			RWPS			RFRA			RIFD			RHTS			RHPS			RBHD			LFHD			RFHD			LBHD			LHIP			RHIP			RASI			LKNE			LTHI			LANK			LTIP			LTOE			LMT1			LMT5			LHEE			RKNE			RTHI			RANK			RTIP			RTOE			RMT1			RMT5			RHEE			LASI			
		X1	Y1	Z1	X2	Y2	Z2	X3	Y3	Z3	X4	Y4	Z4	X5	Y5	Z5	X6	Y6	Z6	X7	Y7	Z7	X8	Y8	Z8	X9	Y9	Z9	X10	Y10	Z10	X11	Y11	Z11	X12	Y12	Z12	X13	Y13	Z13	X14	Y14	Z14	X15	Y15	Z15	X16	Y16	Z16	X17	Y17	Z17	X18	Y18	Z18	X19	Y19	Z19	X20	Y20	Z20	X21	Y21	Z21	X22	Y22	Z22	X23	Y23	Z23	X24	Y24	Z24	X25	Y25	Z25	X26	Y26	Z26	X27	Y27	Z27	X28	Y28	Z28	X29	Y29	Z29	X30	Y30	Z30	X31	Y31	Z31	X32	Y32	Z32	X33	Y33	Z33	X34	Y34	Z34	X35	Y35	Z35	X36	Y36	Z36	X37	Y37	Z37	X38	Y38	Z38	X39	Y39	Z39	X40	Y40	Z40	X41	Y41	Z41	X42	Y42	Z42	X43	Y43	Z43	X44	Y44	Z44	X45	Y45	Z45	X46	Y46	Z46	X47	Y47	Z47	X48	Y48	Z48	X49	Y49	Z49	X50	Y50	Z50	X51	Y51	Z51	X52	Y52	Z52	X53	Y53	Z53	

1	0	885.4918823242188	995.56201171875	79.03469848632812	890.6931762695312	986.7969970703125	-95.26828002929688	908.90185546875	1064.432250976562	-12.0099048614502	1153.362670898438	1250.475219726562	-7.781459808349609	893.0751342773438	1175.913940429688	-16.60665893554688	922.7098388671875	1420.88232421875	-34.53380966186523	1088.006591796875	1350.908203125	-15.39457321166992	874.3612670898438	1282.906860351562	44.51461029052734	917.4285278320312	1384.109008789062	-139.3681945800781	1011.760925292969	1396.596069335938	-182.7782745361328	999.78125	1278.180908203125	-261.570068359375	1022.539489746094	1074.903564453125	-275.84716796875	949.3248291015625	1058.936889648438	-231.384033203125	1100.351806640625	856.557373046875	-209.1780242919922	1082.518798828125	844.2220458984375	-277.7002868652344	1043.953735351562	971.7646484375	-280.2164306640625	1108.708129882812	668.962158203125	-207.0546722412109	1088.87353515625	756.4138793945312	-273.9835815429688	1130.90673828125	758.8026733398438	-223.0184783935547	984.9763793945312	1407.203857421875	131.0493774414062	976.9031372070312	1351.528564453125	199.375244140625	980.5693359375	1086.820434570312	256.43408203125	945.3413696289062	1074.850219726562	166.8533172607422	1095.222534179688	870.57958984375	208.1775665283203	1052.788818359375	863.655517578125	281.2879028320312	1008.86279296875	1020.923889160156	269.7007751464844	1116.421508789062	687.4462890625	209.2753601074219	1134.435546875	758.5716552734375	227.202880859375	1086.234985351562	754.3321533203125	278.2242431640625	938.8013916015625	1584.398559570312	40.43626403808594	1117.73681640625	1624.907470703125	-66.49436187744141	1109.760498046875	1623.738647460938	25.35688591003418	953.102783203125	1575.884033203125	-106.9866561889648	966.2743530273438	940.312255859375	-187.0813293457031	981.7245483398438	947.9237670898438	185.4071044921875	1104.448608398438	957.0685424804688	120.1199035644531	1041.618408203125	476.9067687988281	-158.0184173583984	1028.850708007812	618.6400146484375	-178.9208984375	926.1994018554688	37.07684707641602	-134.8529052734375	978.48974609375	253.5032043457031	-156.7984466552734	1136.999389648438	28.20743560791016	-83.85875701904297	1067.968994140625	20.90869903564453	-41.10733795166016	1049.482055664062	33.16804504394531	-151.3125915527344	883.97509765625	31.28935432434082	-73.83097076416016	1029.026245117188	475.4649963378906	164.5600738525391	1053.686157226562	740.3732299804688	186.5539093017578	928.3282470703125	35.45163726806641	150.0165557861328	1028.689331054688	348.9591979980469	156.1484527587891	1126.000610351562	33.59933090209961	105.3674011230469	1069.509765625	31.22548866271973	64.54233551025391	1031.8427734375	26.79897117614746	175.4399566650391	877.6271362304688	31.99281311035156	99.65830993652344	1102.046508789062	953.5538330078125	-133.2933654785156	
2	0.01	885.404052734375	995.5457153320312	79.04001617431641	890.5968017578125	986.766845703125	-95.24634552001953	908.7605590820312	1064.435180664062	-12.00735950469971	1153.285888671875	1250.481079101562	-7.721974849700928	892.9550170898438	1175.970336914062	-16.56027030944824	922.6650390625	1420.906494140625	-34.50391006469727	1087.96142578125	1350.9287109375	-15.34598731994629	874.3330688476562	1282.97412109375	44.53482818603516	917.4217529296875	1384.1787109375	-139.3472747802734	1011.754211425781	1396.628540039062	-182.751708984375	999.763916015625	1278.226684570312	-261.5234069824219	1022.458679199219	1074.973876953125	-275.7975769042969	949.1928100585938	1059.01513671875	-231.3759918212891	1100.117309570312	856.5436401367188	-209.0971984863281	1082.328247070312	844.2505493164062	-277.6760559082031	1043.792236328125	971.8408203125	-280.1894836425781	1108.404907226562	668.9345092773438	-206.9162902832031	1088.60693359375	756.4287719726562	-273.9919738769531	1130.672973632812	758.845947265625	-223.0040435791016	984.9098510742188	1407.24951171875	131.0872497558594	976.827392578125	1351.566772460938	199.393798828125	980.2237548828125	1086.879516601562	256.4388427734375	945.2103881835938	1074.913452148438	166.9443664550781	1094.873657226562	870.5773315429688	208.2435913085938	1052.54296875	863.7026977539062	281.4199523925781	1008.689147949219	1020.965881347656	269.7938232421875	1115.947387695312	687.4337768554688	209.3504943847656	1133.998168945312	758.54345703125	227.2712097167969	1085.861572265625	754.3536987304688	278.3219604492188	938.791015625	1584.386840820312	40.47369003295898	1117.66748046875	1624.935913085938	-66.46115112304688	1109.724975585938	1623.746704101562	25.38298797607422	953.085205078125	1575.861938476562	-106.96826171875	966.171142578125	940.322021484375	-187.064697265625	981.6187133789062	947.9043579101562	185.4105987548828	1104.394897460938	957.069580078125	120.1461029052734	1041.62353515625	476.9093017578125	-158.0267944335938	1029.153442382812	618.5169067382812	-178.9220123291016	926.2007446289062	37.07175064086914	-134.8634338378906	978.4850463867188	253.5034790039062	-156.8040313720703	1137.002075195312	28.20235252380371	-83.862548828125	1067.970336914062	20.90690040588379	-41.10932540893555	1049.487670898438	33.19445037841797	-151.3283843994141	883.9736938476562	31.29053497314453	-73.84466552734375	1029.02392578125	475.4720153808594	164.5641479492188	1053.477783203125	740.3994140625	186.7391662597656	928.3286743164062	35.46358108520508	150.0181732177734	1028.69677734375	348.9598693847656	156.1421813964844	1126.001098632812	33.60526657104492	105.3614730834961	1069.510498046875	31.2301197052002	64.54170227050781	1031.848876953125	26.80522727966309	175.4390563964844	877.5909423828125	31.99732208251953	99.65630340576172	1102.02587890625	953.5814208984375	-133.2647247314453	
3	0.02	885.2885131835938	995.521728515625	79.04518890380859	890.479736328125	986.7314453125	-95.22470092773438	908.577392578125	1064.442626953125	-12.00251960754395	1153.184814453125	1250.48388671875	-7.639711856842041	892.8109130859375	1176.037231445312	-16.50026512145996	922.6138305664062	1420.939331054688	-34.46397399902344	1087.901733398438	1350.951293945312	-15.27725219726562	874.285400390625	1283.053833007812	44.56185150146484	917.4074096679688	1384.262573242188	-139.3136901855469	1011.741516113281	1396.664794921875	-182.7131958007812	999.7313232421875	1278.281982421875	-261.461669921875	1022.335571289062	1075.061157226562	-275.7280578613281	949.014404296875	1059.102294921875	-231.3597106933594	1099.824829101562	856.5208129882812	-209.0011444091797	1082.077270507812	844.2708129882812	-277.6423645019531	1043.574584960938	971.9271240234375	-280.1554870605469	1107.998168945312	668.8701171875	-206.7377777099609	1088.260131835938	756.4371948242188	-273.9790344238281	1130.363403320312	758.8744506835938	-222.9779510498047	984.8233032226562	1407.298583984375	131.139404296875	976.716064453125	1351.609985351562	199.4150238037109	979.78857421875	1086.949951171875	256.4591369628906	945.0260620117188	1074.98828125	167.0652160644531	1094.425048828125	870.5723266601562	208.3484954833984	1052.201416015625	863.7570190429688	281.5907592773438	1008.447265625	1021.012512207031	269.9169921875	1115.344482421875	687.4154663085938	209.4656982421875	1133.454833984375	758.5100708007812	227.3849792480469	1085.355712890625	754.3726196289062	278.451416015625	938.7830200195312	1584.37255859375	40.52538681030273	1117.58349609375	1624.972778320312	-66.42532348632812	1109.68212890625	1623.765991210938	25.4105396270752	953.060302734375	1575.833740234375	-106.9388122558594	966.055908203125	940.3292236328125	-187.046875	981.4959716796875	947.8743896484375	185.4205017089844	1104.318603515625	957.0684204101562	120.1796493530273	1041.627075195312	476.9124450683594	-158.0327606201172	1029.573608398438	618.3397827148438	-178.9276885986328	926.2034301757812	37.06427001953125	-134.8752136230469	978.4810791015625	253.5045471191406	-156.8097686767578	1137.004638671875	28.19809532165527	-83.86580657958984	1067.970458984375	20.90624237060547	-41.11092758178711	1049.493408203125	33.22310638427734	-151.3459930419922	883.9692993164062	31.28868865966797	-73.8670654296875	1029.019897460938	475.47802734375	164.5698394775391	1053.203491210938	740.4276123046875	186.9927520751953	928.3291625976562	35.47899627685547	150.0210113525391	1028.708374023438	348.9604187011719	156.1336364746094	1126.00244140625	33.61127090454102	105.3544692993164	1069.511108398438	31.23482513427734	64.53982543945312	1031.854248046875	26.81106567382812	175.4386291503906	877.5670776367188	32.00617599487305	99.65927886962891	1101.991577148438	953.614013671875	-133.2280883789062	
4	0.03	885.1480102539062	995.489013671875	79.05052185058594	890.3480834960938	986.6946411132812	-95.20513153076172	908.3558959960938	1064.454956054688	-11.99428844451904	1153.061767578125	1250.481079101562	-7.534280300140381	892.6510009765625	1176.109985351562	-16.4279670715332	922.5597534179688	1420.9794921875	-34.41424560546875	1087.827880859375	1350.971801757812	-15.18751430511475	874.2135009765625	1283.140625	44.59516525268555	917.3826904296875	1384.35400390625	-139.2651214599609	1011.721130371094	1396.700439453125	-182.6613006591797	999.6793823242188	1278.342529296875	-261.3861389160156	1022.16455078125	1075.15869140625	-275.6385192871094	948.7901611328125	1059.189697265625	-231.3323059082031	1099.488159179688	856.4859008789062	-208.8945770263672	1081.770874023438	844.2755737304688	-277.5979614257812	1043.30322265625	972.0143432617188	-280.1147766113281	1107.487182617188	668.760498046875	-206.5290069580078	1087.837036132812	756.4334106445312	-273.935302734375	1129.982055664062	758.871337890625	-222.9371032714844	984.7191162109375	1407.344360351562	131.2064514160156	976.5623168945312	1351.653564453125	199.4367523193359	979.2825927734375	1087.026733398438	256.5015258789062	944.7819213867188	1075.068725585938	167.2128753662109	1093.890625	870.5640258789062	208.4989166259766	1051.761840820312	863.8133544921875	281.79638671875	1008.127746582031	1021.058715820312	270.0658874511719	1114.632446289062	687.3916625976562	209.6261291503906	1132.82666015625	758.47216796875	227.552490234375	1084.723388671875	754.3843994140625	278.6129760742188	938.7802124023438	1584.356323242188	40.59208297729492	1117.489501953125	1625.01611328125	-66.39101409912109	1109.635009765625	1623.798095703125	25.43659973144531	953.0269775390625	1575.800048828125	-106.8958282470703	965.9437255859375	940.3307495117188	-187.0299835205078	981.3660278320312	947.8325805664062	185.4391174316406	1104.219604492188	957.0635375976562	120.2204132080078	1041.62841796875	476.9156799316406	-158.0339813232422	1030.080688476562	618.1173095703125	-178.9402160644531	926.207763671875	37.05497360229492	-134.8870086669922	978.4788208007812	253.5066070556641	-156.8147735595703	1137.0068359375	28.19541549682617	-83.86814117431641	1067.969848632812	20.90689849853516	-41.11198425292969	1049.498046875	33.2489013671875	-151.3620758056641	883.9628295898438	31.28363990783691	-73.89606475830078	1029.013793945312	475.4817199707031	164.5773010253906	1052.865478515625	740.4531860351562	187.3160247802734	928.329833984375	35.49661636352539	150.0246276855469	1028.724975585938	348.9606323242188	156.1230010986328	1126.004638671875	33.61651992797852	105.3469161987305	1069.511596679688	31.23886871337891	64.53660583496094	1031.85791015625	26.81566619873047	175.4390716552734	877.559326171875	32.01831817626953	99.66714477539062	1101.941528320312	953.6486206054688	-133.1837310791016	
